<?xml version="1.0" encoding="UTF-8" standalone="no"?>
<svg width="210px" height="40px" viewBox="0 0 210 40" version="1.1" xmlns="http://www.w3.org/2000/svg" xmlns:xlink="http://www.w3.org/1999/xlink" xmlns:sketch="http://www.bohemiancoding.com/sketch/ns">
    <!-- Generator: Sketch 3.3.3 (12081) - http://www.bohemiancoding.com/sketch -->
    <title>EXPENSEEZ + logo</title>
    <desc>Created with Sketch.</desc>
    <defs></defs>
    <g id="Page-1" stroke="none" stroke-width="1" fill="none" fill-rule="evenodd" sketch:type="MSPage">
        <g id="Artboard-2" sketch:type="MSArtboardGroup" transform="translate(-435.000000, -373.000000)">
            <g id="EXPENSEEZ-+-logo" sketch:type="MSLayerGroup" transform="translate(434.000000, 373.000000)">
                <text id="EXPENSEEZ" sketch:type="MSTextLayer" font-family="Lantinghei TC" font-size="25" font-weight="260">
                    <tspan x="46.8299866" y="30.519989" fill="#FFFFFF">EXPENSE</tspan>
                    <tspan x="176.126862" y="30.519989" fill="#2E8C77">EZ</tspan>
                </text>
                <g id="logo" transform="translate(0.834140, 0.407444)" sketch:type="MSShapeGroup">
                    <g id="Shape-+-Oval-1">
                        <g>
                            <g>
                                <g>
                                    <g>
                                        <g>
                                            <g>
                                                <g>
                                                    <g>
                                                        <g>
                                                            <g>
                                                                <path d="M30.8888889,19.8222222 L24.2222222,19.8222222 C24.0888889,18.8888889 23.6888889,18 23.1555556,17.2444444 L23.9111111,16.4888889 C24.3555556,16.7111111 24.8888889,16.8888889 25.4222222,16.8888889 C27.2444444,16.8888889 28.7111111,15.4222222 28.7111111,13.6 C28.7111111,11.7777778 27.2444444,10.3111111 25.4222222,10.3111111 C23.6,10.3111111 22.1333333,11.7777778 22.1333333,13.6 C22.1333333,14.1333333 22.2666667,14.6666667 22.5333333,15.1111111 L21.7777778,15.8666667 C21.0222222,15.3333333 20.1333333,14.9333333 19.2,14.8 L19.2,7.11111111 C20.6222222,6.66666667 21.6888889,5.37777778 21.6888889,3.77777778 C21.6888889,1.86666667 20.1333333,0.311111111 18.2222222,0.311111111 C16.3111111,0.311111111 14.7555556,1.86666667 14.7555556,3.77777778 C14.7555556,5.33333333 15.8222222,6.66666667 17.2444444,7.11111111 L17.2444444,14.8 C16.3111111,14.9333333 15.4222222,15.3333333 14.6666667,15.8666667 L10.9333333,12.1333333 C11.6,11.2 12,10.0444444 12,8.75555556 C12,5.55555556 9.37777778,2.93333333 6.17777778,2.93333333 C2.97777778,2.93333333 0.355555556,5.55555556 0.355555556,8.75555556 C0.355555556,11.9555556 2.97777778,14.5777778 6.17777778,14.5777778 C7.42222222,14.5777778 8.57777778,14.1777778 9.55555556,13.5111111 L13.2888889,17.2444444 C12.7555556,18 12.3555556,18.8888889 12.2222222,19.8222222 L9.6,19.8222222 C9.15555556,18.3555556 7.82222222,17.2444444 6.17777778,17.2444444 C4.22222222,17.2444444 2.62222222,18.8444444 2.62222222,20.8 C2.62222222,22.7555556 4.22222222,24.3555556 6.17777778,24.3555556 C7.77777778,24.3555556 9.15555556,23.2444444 9.6,21.7777778 L12.2222222,21.7777778 C12.3555556,22.7111111 12.7555556,23.6 13.2888889,24.3555556 L7.37777778,30.2666667 C7.02222222,30.0888889 6.62222222,30 6.17777778,30 C4.62222222,30 3.33333333,31.2888889 3.33333333,32.8444444 C3.33333333,34.4 4.62222222,35.6888889 6.17777778,35.6888889 C7.73333333,35.6888889 9.02222222,34.4 9.02222222,32.8444444 C9.02222222,32.4 8.93333333,32 8.75555556,31.6444444 L14.6666667,25.7333333 C15.4222222,26.2666667 16.3111111,26.6666667 17.2444444,26.8 L17.2444444,29.8222222 C15.2,30.2666667 13.6888889,32.0888889 13.6888889,34.2666667 C13.6888889,36.7555556 15.7333333,38.8 18.2222222,38.8 C20.7111111,38.8 22.7555556,36.7555556 22.7555556,34.2666667 C22.7555556,32.0888889 21.2444444,30.2666667 19.2,29.8222222 L19.2,26.8 C20.1333333,26.6666667 21.0222222,26.2666667 21.7777778,25.7333333 L24.9777778,28.9333333 C24.6222222,29.5555556 24.4,30.2666667 24.4,31.0222222 C24.4,33.2888889 26.2222222,35.1111111 28.4888889,35.1111111 C30.7555556,35.1111111 32.5777778,33.2888889 32.5777778,31.0222222 C32.5777778,28.7555556 30.7555556,26.9333333 28.4888889,26.9333333 C27.7333333,26.9333333 26.9777778,27.1555556 26.4,27.5111111 L23.2,24.3111111 C23.7333333,23.5555556 24.1333333,22.6666667 24.2666667,21.7333333 L30.9333333,21.7333333 C31.3777778,23.6888889 33.1555556,25.2 35.2444444,25.2 C37.6888889,25.2 39.6888889,23.2 39.6888889,20.7555556 C39.6888889,18.3111111 37.6444444,16.3555556 35.2,16.3555556 C33.1111111,16.3555556 31.3333333,17.8222222 30.8888889,19.8222222 Z M35.2,23.2888889 C33.8222222,23.2888889 32.7111111,22.1777778 32.7111111,20.8 C32.7111111,19.4222222 33.8222222,18.3111111 35.2,18.3111111 C36.5777778,18.3111111 37.6888889,19.4222222 37.6888889,20.8 C37.6888889,22.1777778 36.5777778,23.2888889 35.2,23.2888889 L35.2,23.2888889 Z M22.3555556,20.8 C22.3555556,23.0666667 20.4888889,24.9333333 18.2222222,24.9333333 C15.9555556,24.9333333 14.0888889,23.0666667 14.0888889,20.8 C14.0888889,18.5333333 15.9555556,16.6666667 18.2222222,16.6666667 C20.4888889,16.6666667 22.3555556,18.5333333 22.3555556,20.8 L22.3555556,20.8 Z M25.4222222,12.2222222 C26.1777778,12.2222222 26.7555556,12.8 26.7555556,13.5555556 C26.7555556,14.3111111 26.1777778,14.8888889 25.4222222,14.8888889 C24.6666667,14.8888889 24.0888889,14.3111111 24.0888889,13.5555556 C24.0888889,12.8 24.7111111,12.2222222 25.4222222,12.2222222 L25.4222222,12.2222222 Z M16.6666667,3.77777778 C16.6666667,2.93333333 17.3333333,2.26666667 18.1777778,2.26666667 C19.0222222,2.26666667 19.6888889,2.93333333 19.6888889,3.77777778 C19.6888889,4.62222222 19.0222222,5.28888889 18.1777778,5.28888889 C17.3333333,5.28888889 16.6666667,4.62222222 16.6666667,3.77777778 L16.6666667,3.77777778 Z M2.31111111,8.75555556 C2.31111111,6.62222222 4.04444444,4.88888889 6.17777778,4.88888889 C8.31111111,4.88888889 10.0444444,6.62222222 10.0444444,8.75555556 C10.0444444,10.8888889 8.31111111,12.6222222 6.17777778,12.6222222 C4.04444444,12.6222222 2.31111111,10.8888889 2.31111111,8.75555556 L2.31111111,8.75555556 Z M7.77777778,20.8 C7.77777778,21.6888889 7.06666667,22.4 6.17777778,22.4 C5.28888889,22.4 4.57777778,21.6888889 4.57777778,20.8 C4.57777778,19.9111111 5.28888889,19.2 6.17777778,19.2 C7.06666667,19.2 7.77777778,19.9111111 7.77777778,20.8 L7.77777778,20.8 Z M7.06666667,32.8444444 C7.06666667,33.3333333 6.66666667,33.7333333 6.17777778,33.7333333 C5.68888889,33.7333333 5.28888889,33.3333333 5.28888889,32.8444444 C5.28888889,32.3555556 5.68888889,31.9555556 6.17777778,31.9555556 C6.66666667,31.9555556 7.06666667,32.3555556 7.06666667,32.8444444 L7.06666667,32.8444444 Z M18.2222222,36.8444444 C16.8,36.8444444 15.6444444,35.6888889 15.6444444,34.2666667 C15.6444444,32.8444444 16.8,31.6888889 18.2222222,31.6888889 C19.6444444,31.6888889 20.8,32.8444444 20.8,34.2666667 C20.8,35.6888889 19.6444444,36.8444444 18.2222222,36.8444444 L18.2222222,36.8444444 Z M30.5777778,31.0666667 C30.5777778,32.2222222 29.6444444,33.2 28.4444444,33.2 C27.2888889,33.2 26.3111111,32.2666667 26.3111111,31.0666667 C26.3111111,29.8666667 27.2444444,28.9333333 28.4444444,28.9333333 C29.6444444,28.9333333 30.5777778,29.8666667 30.5777778,31.0666667 L30.5777778,31.0666667 Z" id="Shape" fill="#FFFFFF"></path>
                                                                <ellipse id="Oval-1" fill="#2E8C77" cx="6.22222222" cy="8.88888889" rx="4" ry="4"></ellipse>
                                                            </g>
                                                        </g>
                                                    </g>
                                                </g>
                                            </g>
                                        </g>
                                    </g>
                                </g>
                            </g>
                        </g>
                    </g>
                </g>
            </g>
        </g>
    </g>
</svg>